<svg width="24" height="24" viewBox="0 0 24 24" fill="none" xmlns="http://www.w3.org/2000/svg">
<path d="M11.9906 0C5.36875 0 0 5.36875 0 11.9906C0 18.6125 5.36875 23.9813 11.9906 23.9813C18.6125 23.9813 23.9813 18.6156 23.9813 11.9906C23.9813 5.36563 18.6125 0 11.9906 0ZM11.9906 21.9844C11.2219 21.9844 10.2844 21.0625 9.54375 19.5781C9.10625 18.7063 8.74063 17.6469 8.48125 16.5H15.4969C15.2375 17.6469 14.8719 18.7063 14.4375 19.5781C13.6969 21.0625 12.7563 21.9844 11.9906 21.9844ZM7.99688 11.9906C7.99688 11.1406 8.04375 10.3094 8.1375 9.5H15.8375C15.9313 10.3094 15.9781 11.1438 15.9781 11.9906C15.9781 12.8469 15.9313 13.6844 15.8344 14.5H8.14063C8.04688 13.6844 7.99688 12.8469 7.99688 11.9906ZM11.9906 2C12.7594 2 13.6969 2.92188 14.4375 4.40625C14.875 5.28125 15.2406 6.34688 15.5031 7.5H8.47813C8.7375 6.34688 9.10625 5.28125 9.54375 4.40625C10.2844 2.92188 11.2219 2 11.9906 2ZM21.6656 14.5H17.85C17.9375 13.6906 17.9813 12.8531 17.9813 11.9906C17.9813 11.1375 17.9375 10.3031 17.8531 9.5H21.6688C21.875 10.3094 21.9813 11.1406 21.9813 11.9906C21.9813 12.8469 21.875 13.6875 21.6656 14.5ZM19.0531 4.92813C19.8125 5.6875 20.4375 6.55313 20.9156 7.5H17.5469C17.1719 5.64375 16.5719 4.01563 15.8125 2.75625L15.8781 2.78438C17.0688 3.2875 18.1375 4.00938 19.0531 4.92813ZM4.925 4.92813C5.84375 4.00938 6.9125 3.29063 8.10313 2.78438L8.16875 2.75625C7.40938 4.01563 6.80938 5.64063 6.43438 7.5H3.0625C3.54063 6.55 4.1625 5.6875 4.925 4.92813ZM2.30938 9.5H6.12813C6.04375 10.3031 6 11.1375 6 11.9906C6 12.85 6.04688 13.6906 6.13125 14.5H2.3125C2.10313 13.6875 1.99688 12.8469 1.99688 11.9906C1.99688 11.1406 2.10313 10.3094 2.30938 9.5ZM4.925 19.0563C4.16875 18.3 3.54688 17.4406 3.06875 16.5H6.43438C6.80938 18.35 7.40938 19.9719 8.16563 21.2281L8.1 21.2C6.90938 20.6969 5.84063 19.975 4.925 19.0563ZM19.0531 19.0563C18.1344 19.975 17.0656 20.6938 15.875 21.2L15.8094 21.2281C16.5656 19.9719 17.1656 18.3531 17.5406 16.5H20.9063C20.4313 17.4438 19.8094 18.3031 19.0531 19.0563Z" fill="#39822B"/>
</svg>
