<svg width="24" height="24" viewBox="0 0 24 24" fill="none" xmlns="http://www.w3.org/2000/svg">
<path d="M0 12C0 5.37258 5.37258 0 12 0C18.6274 0 24 5.37258 24 12C24 18.6274 18.6274 24 12 24C5.37258 24 0 18.6274 0 12Z" fill="#1D9BF0"/>
<path d="M9.80396 18.33C15.126 18.33 18.036 13.92 18.036 10.098C18.036 9.97201 18.036 9.84601 18.03 9.72601C18.594 9.31801 19.086 8.80801 19.476 8.22601C18.96 8.45401 18.402 8.61001 17.814 8.68201C18.414 8.32201 18.87 7.75801 19.086 7.08001C18.528 7.41001 17.91 7.65001 17.25 7.78201C16.722 7.21801 15.972 6.87001 15.138 6.87001C13.542 6.87001 12.246 8.16601 12.246 9.76201C12.246 9.99001 12.27 10.212 12.324 10.422C9.91796 10.302 7.78796 9.15001 6.35996 7.39801C6.11396 7.82401 5.96996 8.32201 5.96996 8.85001C5.96996 9.85201 6.47996 10.74 7.25996 11.256C6.78596 11.244 6.34196 11.112 5.95196 10.896C5.95196 10.908 5.95196 10.92 5.95196 10.932C5.95196 12.336 6.94796 13.5 8.27396 13.77C8.03396 13.836 7.77596 13.872 7.51196 13.872C7.32596 13.872 7.14596 13.854 6.96596 13.818C7.33196 14.97 8.39996 15.804 9.66596 15.828C8.67596 16.602 7.42796 17.064 6.07196 17.064C5.83796 17.064 5.60996 17.052 5.38196 17.022C6.64796 17.85 8.17196 18.33 9.80396 18.33Z" fill="white"/>
</svg>
