<svg width="24" height="24" viewBox="0 0 24 24" fill="none" xmlns="http://www.w3.org/2000/svg">
<path d="M0 12C0 5.37258 5.37258 0 12 0C18.6274 0 24 5.37258 24 12C24 18.6274 18.6274 24 12 24C5.37258 24 0 18.6274 0 12Z" fill="#0A66C2"/>
<path d="M17.6256 5.4H6.37444C6.11601 5.4 5.86816 5.50266 5.68542 5.6854C5.50269 5.86814 5.40002 6.11599 5.40002 6.37442V17.6256C5.40002 17.884 5.50269 18.1319 5.68542 18.3146C5.86816 18.4973 6.11601 18.6 6.37444 18.6H17.6256C17.884 18.6 18.1319 18.4973 18.3146 18.3146C18.4974 18.1319 18.6 17.884 18.6 17.6256V6.37442C18.6 6.11599 18.4974 5.86814 18.3146 5.6854C18.1319 5.50266 17.884 5.4 17.6256 5.4ZM9.33436 16.6448H7.34977V10.3408H9.33436V16.6448ZM8.34069 9.46725C8.11557 9.46598 7.89588 9.39806 7.70933 9.27205C7.52278 9.14604 7.37774 8.96759 7.29251 8.75923C7.20728 8.55087 7.18568 8.32193 7.23044 8.1013C7.2752 7.88068 7.38432 7.67825 7.54401 7.51958C7.7037 7.36091 7.90682 7.2531 8.12773 7.20975C8.34864 7.16641 8.57744 7.18948 8.78525 7.27604C8.99306 7.36261 9.17057 7.50879 9.29538 7.69615C9.42019 7.8835 9.4867 8.10363 9.48652 8.32875C9.48865 8.47947 9.46041 8.62907 9.40348 8.76864C9.34656 8.90821 9.26211 9.0349 9.15519 9.14114C9.04826 9.24738 8.92104 9.33101 8.78111 9.38703C8.64117 9.44306 8.49139 9.47034 8.34069 9.46725ZM16.6494 16.6503H14.6657V13.2063C14.6657 12.1907 14.2339 11.8772 13.6766 11.8772C13.0881 11.8772 12.5106 12.3208 12.5106 13.232V16.6503H10.526V10.3454H12.4345V11.219H12.4602C12.6518 10.8313 13.3228 10.1685 14.3467 10.1685C15.454 10.1685 16.6503 10.8258 16.6503 12.7508L16.6494 16.6503Z" fill="white"/>
</svg>
