<svg width="5" height="6" viewBox="0 0 5 6" fill="none" xmlns="http://www.w3.org/2000/svg">
<path d="M2.39 5.5573C3.70996 5.5573 4.78 4.48726 4.78 3.1673C4.78 1.84734 3.70996 0.777298 2.39 0.777298C1.07004 0.777298 0 1.84734 0 3.1673C0 4.48726 1.07004 5.5573 2.39 5.5573Z" fill="#009325"/>
<path d="M2.38997 1.9473C2.01997 1.9473 1.71997 2.2473 1.71997 2.6173C1.71997 2.9873 2.38997 4.3273 2.38997 4.3273C2.38997 4.3273 3.05997 2.9873 3.05997 2.6173C3.05997 2.2473 2.75997 1.9473 2.38997 1.9473ZM2.38997 2.7673C2.24997 2.7673 2.13997 2.6573 2.13997 2.5173C2.13997 2.3773 2.24997 2.2673 2.38997 2.2673C2.52997 2.2673 2.63997 2.3773 2.63997 2.5173C2.63997 2.6573 2.51997 2.7673 2.38997 2.7673Z" fill="white"/>
</svg>
