<svg width="4" height="4" viewBox="0 0 4 4" fill="none" xmlns="http://www.w3.org/2000/svg">
<path d="M3.80997 2.11731C3.80997 2.88731 3.17997 3.53731 2.40997 3.53731C1.60997 3.54731 0.969971 2.91731 0.969971 2.11731C0.969971 1.32731 1.59997 0.707309 2.35997 0.687309C3.14997 0.677309 3.80997 1.32731 3.80997 2.11731ZM2.29997 1.57731C2.28997 1.57731 2.28997 1.57731 2.28997 1.57731C2.15997 1.57731 2.02997 1.57731 1.89997 1.57731C1.88997 1.57731 1.86997 1.58731 1.86997 1.59731C1.84997 1.67731 1.81997 1.74731 1.80997 1.82731C1.79997 1.89731 1.78997 1.95731 1.77997 2.02731C1.95997 2.02731 2.12997 2.02731 2.29997 2.02731C2.29997 1.87731 2.29997 1.72731 2.29997 1.57731ZM2.46997 2.20731C2.46997 2.35731 2.46997 2.50731 2.46997 2.65731H2.47997C2.60997 2.65731 2.73997 2.65731 2.86997 2.65731C2.87997 2.65731 2.88997 2.64731 2.89997 2.63731C2.92997 2.53731 2.94997 2.43731 2.97997 2.33731C2.98997 2.29731 2.98997 2.24731 2.99997 2.20731C2.81997 2.20731 2.64997 2.20731 2.46997 2.20731ZM2.98997 2.02731C2.97997 1.86731 2.94997 1.72731 2.89997 1.58731C2.88997 1.56731 2.87997 1.56731 2.86997 1.56731C2.74997 1.56731 2.62997 1.56731 2.50997 1.56731C2.49997 1.56731 2.48997 1.56731 2.47997 1.56731C2.47997 1.71731 2.47997 1.86731 2.47997 2.01731C2.63997 2.02731 2.80997 2.02731 2.98997 2.02731ZM1.77997 2.20731C1.77997 2.21731 1.77997 2.21731 1.77997 2.21731C1.78997 2.35731 1.81997 2.49731 1.86997 2.62731C1.87997 2.64731 1.88997 2.65731 1.90997 2.65731C2.02997 2.65731 2.14997 2.65731 2.26997 2.65731C2.27997 2.65731 2.28997 2.65731 2.29997 2.65731C2.29997 2.50731 2.29997 2.35731 2.29997 2.20731C2.12997 2.20731 1.95997 2.20731 1.77997 2.20731ZM1.68997 1.57731C1.67997 1.57731 1.67997 1.57731 1.67997 1.57731C1.53997 1.57731 1.40997 1.57731 1.26997 1.57731C1.25997 1.57731 1.24997 1.58731 1.23997 1.59731C1.20997 1.66731 1.17997 1.73731 1.15997 1.81731C1.13997 1.88731 1.12997 1.95731 1.11997 2.03731C1.27997 2.03731 1.43997 2.03731 1.59997 2.03731C1.61997 1.87731 1.64997 1.72731 1.68997 1.57731ZM3.15997 2.20731C3.14997 2.36731 3.11997 2.50731 3.06997 2.65731C3.07997 2.65731 3.07997 2.65731 3.07997 2.65731C3.21997 2.65731 3.34997 2.65731 3.47997 2.65731C3.49997 2.65731 3.50997 2.64731 3.50997 2.63731C3.53997 2.54731 3.56997 2.45731 3.59997 2.37731C3.60997 2.32731 3.61997 2.26731 3.62997 2.20731C3.46997 2.20731 3.31997 2.20731 3.15997 2.20731ZM1.59997 2.20731C1.44997 2.20731 1.29997 2.20731 1.13997 2.20731C1.13997 2.21731 1.13997 2.22731 1.13997 2.22731C1.15997 2.37731 1.18997 2.50731 1.24997 2.63731C1.25997 2.65731 1.26997 2.66731 1.29997 2.66731C1.41997 2.66731 1.54997 2.66731 1.66997 2.66731C1.67997 2.66731 1.68997 2.66731 1.68997 2.66731C1.65997 2.50731 1.62997 2.35731 1.59997 2.20731ZM3.62997 2.02731C3.62997 2.01731 3.62997 2.00731 3.62997 2.00731C3.61997 1.86731 3.57997 1.72731 3.51997 1.59731C3.51997 1.58731 3.49997 1.57731 3.48997 1.57731C3.35997 1.57731 3.23997 1.57731 3.10997 1.57731C3.09997 1.57731 3.08997 1.57731 3.07997 1.57731C3.07997 1.58731 3.07997 1.59731 3.08997 1.60731C3.12997 1.73731 3.15997 1.86731 3.16997 2.00731C3.16997 2.02731 3.17997 2.02731 3.19997 2.02731C3.33997 2.02731 3.47997 2.02731 3.61997 2.02731C3.60997 2.02731 3.61997 2.02731 3.62997 2.02731ZM2.64997 0.897308C2.65997 0.907308 2.65997 0.917308 2.65997 0.917308C2.79997 1.05731 2.90997 1.21731 2.98997 1.38731C2.99997 1.40731 3.00997 1.40731 3.02997 1.40731C3.14997 1.40731 3.25997 1.40731 3.37997 1.40731C3.38997 1.40731 3.39997 1.40731 3.40997 1.40731C3.21997 1.13731 2.96997 0.967308 2.64997 0.897308ZM2.10997 3.33731C1.96997 3.18731 1.84997 3.02731 1.76997 2.85731C1.76997 2.84731 1.74997 2.83731 1.73997 2.83731C1.61997 2.83731 1.50997 2.83731 1.38997 2.83731C1.37997 2.83731 1.36997 2.83731 1.35997 2.83731C1.54997 3.09731 1.79997 3.26731 2.10997 3.33731ZM3.40997 2.83731C3.38997 2.83731 3.37997 2.83731 3.37997 2.83731C3.26997 2.83731 3.14997 2.83731 3.03997 2.83731C3.00997 2.83731 2.99997 2.84731 2.98997 2.86731C2.90997 3.03731 2.79997 3.18731 2.66997 3.31731C2.65997 3.32731 2.65997 3.32731 2.65997 3.32731C2.96997 3.26731 3.21997 3.09731 3.40997 2.83731ZM1.35997 1.39731C1.36997 1.39731 1.37997 1.39731 1.37997 1.39731C1.49997 1.39731 1.61997 1.39731 1.73997 1.39731C1.75997 1.39731 1.76997 1.38731 1.77997 1.36731C1.85997 1.19731 1.96997 1.04731 2.09997 0.917308C2.10997 0.907308 2.10997 0.907308 2.11997 0.897308C1.79997 0.967308 1.54997 1.13731 1.35997 1.39731ZM2.29997 0.977306C2.20997 1.03731 1.99997 1.30731 1.96997 1.40731C2.07997 1.40731 2.18997 1.40731 2.29997 1.40731C2.29997 1.25731 2.29997 1.11731 2.29997 0.977306ZM2.46997 0.967307C2.46997 1.11731 2.46997 1.25731 2.46997 1.39731C2.57997 1.39731 2.68997 1.39731 2.80997 1.39731C2.75997 1.27731 2.56997 1.04731 2.46997 0.967307ZM1.95997 2.83731C2.04997 3.00731 2.15997 3.14731 2.29997 3.26731C2.29997 3.11731 2.29997 2.97731 2.29997 2.83731C2.17997 2.83731 2.06997 2.83731 1.95997 2.83731ZM2.46997 3.26731C2.60997 3.13731 2.71997 2.99731 2.80997 2.83731C2.68997 2.83731 2.57997 2.83731 2.46997 2.83731C2.46997 2.97731 2.46997 3.11731 2.46997 3.26731Z" fill="white"/>
</svg>
