<svg width="3" height="2" viewBox="0 0 3 2" fill="none" xmlns="http://www.w3.org/2000/svg">
<path d="M2.59007 1.84729C2.60006 1.82729 2.61007 1.80729 2.61007 1.78729V0.597292C2.61007 0.577292 2.60006 0.557292 2.59007 0.537292L1.69006 1.14729L2.59007 1.84729Z" fill="white"/>
<path d="M1.36998 1.2673L2.52998 0.477301C2.51998 0.477301 2.50998 0.4673 2.48998 0.4673H0.269981C0.259981 0.4673 0.23998 0.467301 0.22998 0.477301L1.36998 1.2673Z" fill="white"/>
<path d="M0.170025 0.537292C0.160025 0.557292 0.150024 0.577292 0.150024 0.597292V1.78729C0.150024 1.80729 0.160025 1.82729 0.170025 1.83729L1.06002 1.14729L0.170025 0.537292Z" fill="white"/>
<path d="M1.62999 1.1873L1.37999 1.3573L1.13999 1.1873L0.23999 1.8873C0.24999 1.8973 0.269987 1.8973 0.279987 1.8973H2.49999C2.50999 1.8973 2.51999 1.8973 2.52999 1.8873L1.62999 1.1873Z" fill="white"/>
</svg>
