<svg width="15" height="15" viewBox="0 0 15 15" fill="none" xmlns="http://www.w3.org/2000/svg">
<path d="M7.5 8.75L7.14645 9.10355L7.5 9.45711L7.85355 9.10355L7.5 8.75ZM8 3.125C8 2.84886 7.77614 2.625 7.5 2.625C7.22386 2.625 7 2.84886 7 3.125L8 3.125ZM4.02145 5.97855L7.14645 9.10355L7.85355 8.39645L4.72855 5.27145L4.02145 5.97855ZM7.85355 9.10355L10.9786 5.97855L10.2714 5.27145L7.14645 8.39645L7.85355 9.10355ZM8 8.75L8 3.125L7 3.125L7 8.75L8 8.75Z" fill="white"/>
<path d="M3.125 10L3.125 10.625C3.125 11.3154 3.68464 11.875 4.375 11.875L10.625 11.875C11.3154 11.875 11.875 11.3154 11.875 10.625V10" stroke="white"/>
</svg>
