<svg width="93" height="57" viewBox="0 0 93 57" fill="none" xmlns="http://www.w3.org/2000/svg">
<path d="M83.75 50.34H81.98V52.11H83.75V50.34Z" fill="#009325"/>
<path d="M8.01 55.91H8.33C8.33 55.94 8.33 55.96 8.33 55.97C8.33 56.09 8.34 56.16 8.35 56.2C8.36 56.24 8.39 56.27 8.44 56.28C8.51 56.31 8.76 56.33 9.19 56.33C9.5 56.33 9.72 56.31 9.85 56.28C9.97 56.25 10.03 56.16 10.03 55.99C10.03 55.9 10.02 55.84 10 55.79C9.98 55.75 9.95 55.72 9.9 55.7C9.85 55.68 9.78 55.67 9.69 55.67C9.6 55.67 9.3 55.67 8.78 55.67C8.6 55.67 8.46 55.65 8.35 55.62C8.24 55.59 8.16 55.53 8.1 55.46C8.03 55.37 8 55.25 8 55.07C8 54.88 8.05 54.74 8.16 54.65C8.21 54.61 8.27 54.57 8.34 54.55C8.41 54.53 8.49 54.51 8.61 54.5C8.8 54.48 9.02 54.47 9.27 54.47C9.51 54.47 9.69 54.48 9.82 54.51C9.95 54.53 10.05 54.58 10.13 54.64C10.19 54.69 10.23 54.75 10.26 54.81C10.28 54.88 10.29 54.98 10.3 55.13H9.98C9.98 55.1 9.98 55.09 9.98 55.08C9.98 54.98 9.97 54.91 9.95 54.88C9.92 54.83 9.85 54.8 9.75 54.77C9.65 54.75 9.49 54.74 9.27 54.74C9 54.74 8.8 54.75 8.67 54.77C8.54 54.79 8.45 54.82 8.41 54.86C8.37 54.9 8.35 54.97 8.35 55.08C8.35 55.17 8.36 55.24 8.38 55.27C8.4 55.31 8.44 55.33 8.5 55.35C8.59 55.38 8.77 55.4 9.04 55.4C9.13 55.4 9.36 55.4 9.72 55.4C9.87 55.4 9.99 55.42 10.08 55.45C10.16 55.48 10.23 55.53 10.29 55.6C10.36 55.69 10.39 55.81 10.39 55.97C10.39 56.12 10.36 56.25 10.31 56.33C10.24 56.44 10.13 56.51 9.95 56.54C9.78 56.58 9.47 56.59 9.03 56.59C8.8 56.59 8.63 56.58 8.51 56.57C8.4 56.56 8.31 56.53 8.24 56.49C8.16 56.44 8.1 56.38 8.07 56.31C8.04 56.24 8.02 56.14 8.02 56C8.01 56.01 8.01 55.97 8.01 55.91Z" fill="white"/>
<path d="M11.24 54.47H11.83L12.95 56.21L14.05 54.47H14.65V56.58H14.33V54.75H14.25L13.09 56.58H12.83L11.65 54.75H11.57V56.58H11.25V54.47H11.24Z" fill="white"/>
<path d="M17.91 56.59L17.66 56.15H16.01L15.76 56.59H15.4L16.6 54.48H17.08L18.28 56.59H17.91ZM17.51 55.87L16.88 54.74H16.8L16.16 55.87H17.51Z" fill="white"/>
<path d="M19.01 56.59V54.48H20.33C20.68 54.48 20.91 54.49 21.01 54.51C21.19 54.53 21.31 54.61 21.38 54.75C21.42 54.84 21.45 54.97 21.45 55.13C21.45 55.25 21.44 55.34 21.43 55.41C21.42 55.48 21.39 55.53 21.36 55.56C21.3 55.62 21.24 55.66 21.17 55.68C21.21 55.69 21.26 55.72 21.32 55.78C21.36 55.82 21.39 55.88 21.4 55.94C21.41 56 21.42 56.12 21.42 56.29V56.6H21.1V56.38C21.1 56.21 21.1 56.09 21.09 56.03C21.07 55.9 21 55.83 20.88 55.81C20.83 55.8 20.79 55.8 20.75 55.8C20.71 55.8 20.57 55.8 20.34 55.8H19.34V56.6H19.01V56.59ZM19.34 55.51H20.34C20.61 55.51 20.78 55.51 20.86 55.5C20.93 55.49 20.99 55.47 21.04 55.45C21.11 55.41 21.14 55.29 21.14 55.12C21.14 54.97 21.11 54.87 21.05 54.82C21.01 54.79 20.95 54.77 20.86 54.76C20.77 54.75 20.6 54.75 20.35 54.75H19.35V55.51H19.34Z" fill="white"/>
<path d="M22.13 54.47H24.54V54.74H23.5V56.58H23.18V54.74H22.13V54.47Z" fill="white"/>
<path d="M29.06 56.59L28.81 56.15H27.16L26.91 56.59H26.55L27.75 54.48H28.23L29.43 56.59H29.06ZM28.67 55.87L28.0401 54.74H27.96L27.32 55.87H28.67Z" fill="white"/>
<path d="M31.26 55.5H32.67C32.67 55.83 32.66 56.05 32.64 56.15C32.62 56.26 32.58 56.34 32.54 56.4C32.49 56.46 32.42 56.5 32.32 56.53C32.19 56.57 31.9 56.59 31.45 56.59C31.03 56.59 30.73 56.58 30.55 56.55C30.39 56.52 30.27 56.45 30.2 56.34C30.12 56.22 30.08 55.95 30.08 55.53C30.08 55.24 30.1 55.01 30.14 54.85C30.18 54.69 30.28 54.59 30.43 54.54C30.58 54.49 30.88 54.47 31.32 54.47C31.46 54.47 31.63 54.47 31.8 54.48C31.98 54.49 32.1 54.5 32.17 54.51C32.31 54.53 32.42 54.58 32.51 54.67C32.56 54.72 32.6 54.79 32.62 54.85C32.64 54.92 32.65 55.02 32.65 55.16H32.32C32.32 54.99 32.3 54.89 32.26 54.85C32.24 54.83 32.2 54.81 32.15 54.8C32.1 54.79 32.03 54.78 31.92 54.77C31.77 54.76 31.59 54.75 31.36 54.75C31.07 54.75 30.86 54.76 30.74 54.77C30.62 54.78 30.53 54.81 30.5 54.85C30.46 54.88 30.44 54.95 30.42 55.04C30.4 55.13 30.4 55.29 30.4 55.5C30.4 55.81 30.41 56.02 30.44 56.11C30.46 56.16 30.48 56.21 30.51 56.23C30.54 56.26 30.59 56.27 30.65 56.28C30.79 56.3 31.08 56.31 31.54 56.31C31.79 56.31 31.98 56.3 32.1 56.28C32.2 56.26 32.27 56.23 32.29 56.17C32.32 56.11 32.33 55.98 32.34 55.78H31.25V55.5H31.26Z" fill="white"/>
<path d="M33.55 56.59V54.48H34.87C35.22 54.48 35.45 54.49 35.55 54.51C35.73 54.53 35.85 54.61 35.92 54.75C35.96 54.84 35.9901 54.97 35.9901 55.13C35.9901 55.25 35.9801 55.34 35.9701 55.41C35.9601 55.48 35.9301 55.53 35.9001 55.56C35.8401 55.62 35.78 55.66 35.71 55.68C35.75 55.69 35.8001 55.72 35.8601 55.78C35.9001 55.82 35.93 55.88 35.94 55.94C35.95 56 35.96 56.12 35.96 56.29V56.6H35.64V56.38C35.64 56.21 35.6401 56.09 35.6301 56.03C35.6101 55.9 35.54 55.83 35.42 55.81C35.37 55.8 35.3301 55.8 35.2901 55.8C35.2501 55.8 35.1101 55.8 34.8801 55.8H33.8801V56.6H33.55V56.59ZM33.8801 55.51H34.8801C35.1501 55.51 35.3201 55.51 35.4001 55.5C35.4701 55.49 35.5301 55.47 35.5801 55.45C35.6501 55.41 35.68 55.29 35.68 55.12C35.68 54.97 35.65 54.87 35.59 54.82C35.55 54.79 35.4901 54.77 35.4001 54.76C35.3101 54.75 35.14 54.75 34.89 54.75H33.89V55.51H33.8801Z" fill="white"/>
<path d="M36.88 54.47H37.2V56.58H36.88V54.47Z" fill="white"/>
<path d="M40.27 55.84H40.59C40.58 56.04 40.57 56.18 40.56 56.25C40.52 56.41 40.42 56.51 40.23 56.55C40.09 56.58 39.84 56.59 39.47 56.59C39 56.59 38.68 56.57 38.52 56.54C38.36 56.51 38.25 56.42 38.19 56.29C38.13 56.15 38.11 55.91 38.11 55.56C38.11 55.23 38.13 54.98 38.17 54.83C38.22 54.64 38.35 54.54 38.57 54.5C38.77 54.47 39.06 54.46 39.43 54.46C39.79 54.46 40.05 54.48 40.21 54.51C40.29 54.53 40.36 54.56 40.42 54.62C40.48 54.67 40.52 54.73 40.53 54.8C40.55 54.86 40.55 54.99 40.56 55.18H40.26C40.26 55.13 40.26 55.11 40.26 55.09C40.26 54.99 40.25 54.92 40.23 54.88C40.21 54.84 40.18 54.81 40.13 54.79C40.03 54.75 39.79 54.73 39.42 54.73C39.15 54.73 38.94 54.74 38.81 54.75C38.68 54.76 38.59 54.79 38.55 54.82C38.51 54.85 38.49 54.92 38.47 55.02C38.45 55.12 38.44 55.26 38.44 55.44C38.44 55.53 38.44 55.64 38.45 55.77C38.46 55.91 38.46 56 38.47 56.05C38.48 56.13 38.51 56.18 38.54 56.22C38.58 56.25 38.64 56.27 38.72 56.28C38.88 56.3 39.1 56.3 39.39 56.3C39.48 56.3 39.6 56.3 39.74 56.29C39.88 56.28 39.98 56.28 40.01 56.27C40.08 56.26 40.14 56.25 40.17 56.23C40.2 56.21 40.23 56.18 40.24 56.14C40.25 56.13 40.26 56.02 40.27 55.84Z" fill="white"/>
<path d="M41.42 54.47H41.74V55.51C41.74 55.81 41.74 55.99 41.75 56.06C41.76 56.14 41.78 56.19 41.81 56.22C41.84 56.25 41.9 56.27 41.98 56.28C42.12 56.3 42.33 56.31 42.6 56.31C42.97 56.31 43.23 56.3 43.36 56.28C43.44 56.27 43.49 56.24 43.52 56.21C43.55 56.17 43.57 56.12 43.57 56.03C43.58 55.95 43.58 55.78 43.58 55.51V54.47H43.9V55.51C43.9 55.79 43.89 55.98 43.88 56.09C43.86 56.28 43.79 56.41 43.67 56.48C43.59 56.52 43.5 56.55 43.4 56.56C43.3 56.57 43.04 56.58 42.64 56.59C42.29 56.59 42.08 56.58 42.01 56.58C41.94 56.58 41.86 56.57 41.78 56.55C41.63 56.52 41.53 56.44 41.46 56.31C41.43 56.25 41.41 56.17 41.4 56.09C41.39 56 41.39 55.81 41.38 55.52V54.47H41.42Z" fill="white"/>
<path d="M44.84 54.47H45.16V56.31H46.81V56.58H44.84V54.47Z" fill="white"/>
<path d="M47.21 54.47H49.62V54.74H48.58V56.58H48.26V54.74H47.21V54.47Z" fill="white"/>
<path d="M50.39 54.47H50.71V55.51C50.71 55.81 50.71 55.99 50.72 56.06C50.73 56.14 50.75 56.19 50.78 56.22C50.81 56.25 50.87 56.27 50.95 56.28C51.09 56.3 51.3 56.31 51.57 56.31C51.94 56.31 52.2 56.3 52.34 56.28C52.42 56.27 52.47 56.24 52.5 56.21C52.53 56.17 52.55 56.12 52.55 56.03C52.55 55.95 52.56 55.78 52.56 55.51V54.47H52.88V55.51C52.88 55.79 52.87 55.98 52.86 56.09C52.84 56.28 52.77 56.41 52.65 56.48C52.57 56.52 52.48 56.55 52.38 56.56C52.28 56.57 52.02 56.58 51.62 56.59C51.27 56.59 51.06 56.58 50.99 56.58C50.92 56.58 50.84 56.57 50.76 56.55C50.61 56.52 50.51 56.44 50.44 56.31C50.41 56.25 50.39 56.17 50.38 56.09C50.37 56 50.37 55.81 50.36 55.52V54.47H50.39Z" fill="white"/>
<path d="M53.8101 56.59V54.48H55.1301C55.4801 54.48 55.7101 54.49 55.8101 54.51C55.9901 54.53 56.1201 54.61 56.1801 54.75C56.2201 54.84 56.2501 54.97 56.2501 55.13C56.2501 55.25 56.2401 55.34 56.2301 55.41C56.2201 55.47 56.1901 55.53 56.1601 55.56C56.1001 55.62 56.0401 55.66 55.9701 55.68C56.0101 55.69 56.0601 55.72 56.1201 55.78C56.1601 55.82 56.1901 55.88 56.2001 55.94C56.2101 56 56.2201 56.12 56.2201 56.29V56.6H55.9001V56.38C55.9001 56.21 55.9001 56.09 55.8901 56.03C55.8701 55.9 55.8001 55.83 55.6801 55.81C55.6301 55.8 55.5901 55.8 55.5501 55.8C55.5101 55.8 55.3701 55.8 55.1401 55.8H54.1401V56.6H53.8101V56.59ZM54.1301 55.51H55.1301C55.4001 55.51 55.5701 55.51 55.6501 55.5C55.7201 55.49 55.7801 55.47 55.8301 55.45C55.9001 55.41 55.9301 55.29 55.9301 55.12C55.9301 54.97 55.9001 54.87 55.8401 54.82C55.8001 54.79 55.7401 54.77 55.6501 54.76C55.5601 54.75 55.3901 54.75 55.1401 54.75H54.1401V55.51H54.1301Z" fill="white"/>
<path d="M57.14 56.59V54.48H59.23V54.75H57.46V55.36H59.15V55.63H57.46V56.31H59.23V56.58H57.14V56.59Z" fill="white"/>
<path d="M61.4 55.91H61.72C61.72 55.94 61.72 55.96 61.72 55.97C61.72 56.09 61.73 56.16 61.74 56.2C61.75 56.24 61.78 56.27 61.83 56.28C61.9 56.31 62.15 56.33 62.58 56.33C62.89 56.33 63.11 56.31 63.24 56.28C63.36 56.25 63.42 56.16 63.42 55.99C63.42 55.9 63.41 55.84 63.39 55.79C63.37 55.75 63.34 55.72 63.29 55.7C63.24 55.68 63.17 55.67 63.08 55.67C62.99 55.67 62.69 55.67 62.17 55.67C61.99 55.67 61.85 55.65 61.74 55.62C61.63 55.59 61.55 55.53 61.49 55.46C61.42 55.37 61.39 55.25 61.39 55.07C61.39 54.88 61.44 54.74 61.55 54.65C61.6 54.61 61.66 54.57 61.73 54.55C61.8 54.53 61.88 54.51 62 54.5C62.19 54.48 62.41 54.47 62.66 54.47C62.9 54.47 63.08 54.48 63.21 54.51C63.34 54.53 63.44 54.58 63.52 54.64C63.58 54.69 63.62 54.75 63.65 54.81C63.67 54.88 63.68 54.98 63.69 55.13H63.37C63.37 55.1 63.37 55.09 63.37 55.08C63.37 54.98 63.36 54.91 63.34 54.88C63.31 54.83 63.24 54.8 63.14 54.77C63.04 54.75 62.88 54.74 62.66 54.74C62.39 54.74 62.19 54.75 62.06 54.77C61.93 54.79 61.84 54.82 61.8 54.86C61.76 54.9 61.74 54.97 61.74 55.08C61.74 55.17 61.75 55.24 61.77 55.27C61.79 55.31 61.83 55.33 61.89 55.35C61.98 55.38 62.16 55.4 62.43 55.4C62.52 55.4 62.75 55.4 63.11 55.4C63.26 55.4 63.38 55.42 63.47 55.45C63.55 55.48 63.62 55.53 63.68 55.6C63.75 55.69 63.78 55.81 63.78 55.97C63.78 56.12 63.75 56.25 63.7 56.33C63.63 56.44 63.52 56.51 63.34 56.54C63.17 56.58 62.86 56.59 62.42 56.59C62.19 56.59 62.02 56.58 61.9 56.57C61.79 56.56 61.7 56.53 61.63 56.49C61.55 56.44 61.49 56.38 61.46 56.31C61.43 56.24 61.41 56.14 61.41 56C61.4 56.01 61.4 55.97 61.4 55.91Z" fill="white"/>
<path d="M64.4301 54.47H64.8601L65.8601 55.46L66.8201 54.47H67.2601L66.0201 55.72V56.58H65.7001V55.72L64.4301 54.47Z" fill="white"/>
<path d="M67.9401 55.91H68.2601C68.2601 55.94 68.2601 55.96 68.2601 55.97C68.2601 56.09 68.2701 56.16 68.2801 56.2C68.2901 56.24 68.3201 56.27 68.3701 56.28C68.4401 56.31 68.6901 56.33 69.1201 56.33C69.4301 56.33 69.6501 56.31 69.7801 56.28C69.9001 56.25 69.9601 56.16 69.9601 55.99C69.9601 55.9 69.9501 55.84 69.9301 55.79C69.9101 55.75 69.8801 55.72 69.8301 55.7C69.7801 55.68 69.7101 55.67 69.6201 55.67C69.5301 55.67 69.2301 55.67 68.7101 55.67C68.5301 55.67 68.3901 55.65 68.2801 55.62C68.1701 55.59 68.0901 55.53 68.0301 55.46C67.9601 55.37 67.9301 55.25 67.9301 55.07C67.9301 54.88 67.98 54.74 68.09 54.65C68.14 54.61 68.2001 54.57 68.2701 54.55C68.3301 54.53 68.4201 54.51 68.5401 54.5C68.7301 54.48 68.9501 54.47 69.2001 54.47C69.4401 54.47 69.6201 54.48 69.7501 54.51C69.8801 54.53 69.9801 54.58 70.0601 54.64C70.1201 54.69 70.1601 54.75 70.1901 54.81C70.2101 54.88 70.2201 54.98 70.2301 55.13H69.9001C69.9001 55.1 69.9001 55.09 69.9001 55.08C69.9001 54.98 69.8901 54.91 69.8701 54.88C69.8401 54.83 69.7701 54.8 69.6701 54.77C69.5701 54.75 69.4101 54.74 69.1901 54.74C68.9201 54.74 68.72 54.75 68.59 54.77C68.46 54.79 68.3701 54.82 68.3301 54.86C68.2901 54.9 68.2701 54.97 68.2701 55.08C68.2701 55.17 68.2801 55.24 68.3001 55.27C68.3201 55.31 68.3601 55.33 68.4201 55.35C68.5101 55.38 68.6901 55.4 68.9601 55.4C69.0501 55.4 69.2801 55.4 69.6401 55.4C69.7901 55.4 69.9101 55.42 70.0001 55.45C70.0801 55.48 70.1501 55.53 70.2101 55.6C70.2801 55.69 70.3101 55.81 70.3101 55.97C70.3101 56.12 70.2801 56.25 70.2301 56.33C70.1601 56.44 70.0501 56.51 69.8701 56.54C69.7001 56.58 69.3901 56.59 68.9501 56.59C68.7201 56.59 68.5501 56.58 68.4301 56.57C68.3201 56.56 68.2301 56.53 68.1601 56.49C68.0801 56.44 68.0201 56.38 67.9901 56.31C67.9601 56.24 67.9401 56.14 67.9401 56C67.9401 56.01 67.9401 55.97 67.9401 55.91Z" fill="white"/>
<path d="M71.01 54.47H73.42V54.74H72.38V56.58H72.06V54.74H71.01V54.47Z" fill="white"/>
<path d="M74.21 56.59V54.48H76.3V54.75H74.53V55.36H76.22V55.63H74.53V56.31H76.3V56.58H74.21V56.59Z" fill="white"/>
<path d="M77.12 54.47H77.71L78.83 56.21L79.93 54.47H80.53V56.58H80.2V54.75H80.12L78.96 56.58H78.7L77.52 54.75H77.44V56.58H77.12V54.47Z" fill="white"/>
<path d="M81.4 55.91H81.72C81.72 55.94 81.72 55.96 81.72 55.97C81.72 56.09 81.73 56.16 81.74 56.2C81.75 56.24 81.78 56.27 81.83 56.28C81.9 56.31 82.15 56.33 82.58 56.33C82.89 56.33 83.11 56.31 83.24 56.28C83.36 56.25 83.42 56.16 83.42 55.99C83.42 55.9 83.41 55.84 83.39 55.79C83.37 55.75 83.34 55.72 83.29 55.7C83.24 55.68 83.17 55.67 83.08 55.67C82.99 55.67 82.69 55.67 82.17 55.67C81.99 55.67 81.85 55.65 81.74 55.62C81.63 55.59 81.55 55.53 81.49 55.46C81.42 55.37 81.39 55.25 81.39 55.07C81.39 54.88 81.44 54.74 81.55 54.65C81.6 54.61 81.66 54.57 81.73 54.55C81.8 54.53 81.88 54.51 82 54.5C82.19 54.48 82.41 54.47 82.66 54.47C82.9 54.47 83.08 54.48 83.21 54.51C83.34 54.53 83.44 54.58 83.52 54.64C83.58 54.69 83.62 54.75 83.65 54.81C83.67 54.88 83.68 54.98 83.69 55.13H83.37C83.37 55.1 83.37 55.09 83.37 55.08C83.37 54.98 83.36 54.91 83.34 54.88C83.31 54.83 83.24 54.8 83.14 54.77C83.04 54.75 82.88 54.74 82.66 54.74C82.39 54.74 82.19 54.75 82.06 54.77C81.93 54.79 81.84 54.82 81.8 54.86C81.76 54.9 81.74 54.97 81.74 55.08C81.74 55.17 81.75 55.24 81.77 55.27C81.79 55.31 81.83 55.33 81.89 55.35C81.98 55.38 82.16 55.4 82.43 55.4C82.52 55.4 82.75 55.4 83.11 55.4C83.26 55.4 83.38 55.42 83.47 55.45C83.55 55.48 83.62 55.53 83.68 55.6C83.75 55.69 83.78 55.81 83.78 55.97C83.78 56.12 83.75 56.25 83.7 56.33C83.63 56.44 83.52 56.51 83.34 56.54C83.17 56.58 82.86 56.59 82.42 56.59C82.19 56.59 82.02 56.58 81.9 56.57C81.79 56.56 81.7 56.53 81.63 56.49C81.55 56.44 81.49 56.38 81.46 56.31C81.43 56.24 81.41 56.14 81.41 56C81.4 56.01 81.4 55.97 81.4 55.91Z" fill="white"/>
<path d="M6.07 48.25C5.8 48.16 5.45 48.11 4.99 48.11C4.01 48.11 3.39 48.1 3.14 48.1C2.28 48.09 1.93 48.04 1.78 47.99C1.68 47.96 1.66 47.93 1.66 47.93C1.66 47.93 1.62 47.85 1.62 47.58C1.62 47.32 1.68 47.25 1.68 47.25C1.69 47.24 1.8 47.15 2.21 47.08C2.54 47.03 3.07 47 3.78 47C4.34 47 4.75 47.03 5.01 47.08C5.27 47.14 5.33 47.21 5.33 47.21C5.33 47.21 5.37 47.29 5.37 47.57V47.71H6.97L6.96 47.7C6.95 47.26 6.91 46.94 6.84 46.72C6.76 46.47 6.6 46.26 6.38 46.08C6.13 45.87 5.79 45.73 5.38 45.65C5 45.58 4.48 45.54 3.81 45.54C3.11 45.54 2.49 45.57 1.97 45.63C1.63 45.67 1.37 45.72 1.16 45.79C0.95 45.89 0.75 46 0.58 46.14C0.19 46.45 0 46.94 0 47.57C0 48.13 0.12 48.55 0.35 48.85C0.55 49.11 0.84 49.3 1.2 49.41C1.28 49.43 1.37 49.45 1.46 49.47C1.56 49.49 1.72 49.52 1.84 49.53C2.03 49.55 2.24 49.56 2.47 49.56C3.86 49.56 4.69 49.56 4.93 49.57C5.2 49.58 5.34 49.61 5.4 49.63C5.44 49.64 5.45 49.66 5.46 49.69C5.47 49.71 5.51 49.81 5.51 50.08C5.51 50.49 5.37 50.52 5.29 50.54C4.95 50.62 4.37 50.66 3.56 50.66C2.03 50.66 1.72 50.58 1.67 50.56C1.63 50.54 1.62 50.53 1.62 50.53C1.62 50.52 1.58 50.42 1.58 50.02V50.01V49.99C1.58 49.97 1.58 50.06 1.58 49.99V49.95H0.01V49.98C0.01 50.17 0.01 50.13 0.01 50.15C0.01 50.58 0.06 50.9 0.16 51.14C0.27 51.4 0.48 51.62 0.77 51.79C1 51.92 1.28 52 1.63 52.05C1.95 52.09 2.43 52.11 3.08 52.11C4.31 52.11 5.15 52.06 5.65 51.96C6.22 51.84 6.63 51.59 6.86 51.21C7.04 50.91 7.13 50.52 7.13 50.03C7.13 49.51 7.02 49.1 6.79 48.79C6.61 48.54 6.36 48.36 6.07 48.25Z" fill="#003AA9"/>
<path d="M12.97 50.05L10.13 45.57H7.95996V52.09H9.54996V47.59L12.43 52.09H13.52L16.35 47.62V52.09H17.95V45.57H15.77L12.97 50.05Z" fill="#003AA9"/>
<path d="M24.03 45.57H22.32L18.65 52.09H20.46L21.14 50.88L21.96 49.41L22.07 49.21L23.2 47.22L24.42 49.41H22.72L21.95 50.88H25.23L25.9 52.09H27.69L24.03 45.57Z" fill="#003AA9"/>
<path d="M34.01 45.64C33.72 45.6 33.1 45.58 32.11 45.57H28.15V52.09H29.75V49.89H32.11C32.9 49.89 33.14 49.9 33.21 49.9C33.3 49.9 33.41 49.91 33.53 49.93C33.68 49.96 33.77 50.01 33.8 50.21C33.81 50.32 33.83 50.57 33.83 51.13V52.08H35.43V50.87C35.43 50.36 35.41 50.03 35.38 49.83C35.34 49.6 35.24 49.4 35.08 49.22C35.12 49.18 35.16 49.15 35.19 49.11C35.32 48.96 35.42 48.76 35.47 48.52C35.51 48.32 35.53 48.04 35.53 47.68C35.53 47.18 35.46 46.79 35.31 46.49C35.13 46.17 34.77 45.74 34.01 45.64ZM33.8 48.3C33.75 48.33 33.66 48.37 33.48 48.39C33.35 48.4 33.01 48.42 32.11 48.42H29.75V47.04H32.11C32.78 47.04 33.23 47.05 33.46 47.07C33.71 47.09 33.79 47.15 33.81 47.16C33.84 47.18 33.91 47.31 33.91 47.68C33.91 48.2 33.8 48.3 33.8 48.3Z" fill="#003AA9"/>
<path d="M36.26 47.04H39.11V52.09H40.71V47.04H43.55V45.57H36.26V47.04Z" fill="#003AA9"/>
<path d="M49.55 45.57H47.84L44.17 52.09H45.98L46.66 50.88L47.48 49.41L47.59 49.21L48.72 47.22L49.94 49.41H48.24L47.47 50.88H50.75L51.42 52.09H53.21L49.55 45.57Z" fill="#009325"/>
<path d="M60.96 48.39V48.75C60.95 49.7 60.92 50.3 60.86 50.6C60.79 50.96 60.67 51.23 60.5 51.44C60.33 51.65 60.07 51.81 59.73 51.92C59.33 52.05 58.53 52.11 57.24 52.11C56.05 52.11 55.23 52.07 54.73 51.99C54.19 51.9 53.78 51.65 53.53 51.25C53.28 50.85 53.16 50.08 53.16 48.83C53.16 48 53.22 47.36 53.34 46.88C53.48 46.32 53.84 45.94 54.38 45.77C54.84 45.62 55.67 45.55 56.92 45.55C57.32 45.55 57.77 45.56 58.26 45.58C58.76 45.6 59.1 45.63 59.3 45.65C59.76 45.71 60.14 45.9 60.43 46.2C60.61 46.39 60.74 46.61 60.82 46.85C60.88 47.06 60.92 47.35 60.93 47.73H59.31C59.3 47.36 59.25 47.23 59.24 47.19C59.22 47.18 59.19 47.16 59.13 47.15C59.06 47.13 58.9 47.11 58.56 47.08C58.16 47.05 57.66 47.04 57.07 47.04C56.29 47.04 55.74 47.06 55.41 47.1C55.04 47.15 54.95 47.21 54.95 47.21C54.95 47.21 54.89 47.28 54.85 47.53C54.81 47.77 54.79 48.17 54.79 48.72C54.79 49.74 54.84 50.15 54.88 50.31C54.9 50.39 54.93 50.44 54.95 50.45C54.96 50.46 55.01 50.5 55.17 50.52C55.52 50.58 56.32 50.6 57.54 50.6C58.2 50.6 58.7 50.57 59 50.52C59.17 50.49 59.25 50.44 59.27 50.41C59.28 50.39 59.33 50.27 59.35 49.84H56.4V48.37H60.96V48.39Z" fill="#009325"/>
<path d="M67.6601 45.64C67.3701 45.6 66.7501 45.58 65.7601 45.57H61.8V52.09H63.4001V49.89H65.7601C66.5501 49.89 66.7901 49.9 66.8601 49.9C66.9501 49.9 67.0601 49.91 67.18 49.93C67.33 49.96 67.42 50.01 67.45 50.21C67.46 50.32 67.4801 50.57 67.4801 51.13V52.08H69.0801V50.87C69.0801 50.36 69.06 50.03 69.03 49.83C68.99 49.6 68.8901 49.4 68.7301 49.22C68.7701 49.18 68.81 49.15 68.84 49.11C68.97 48.96 69.0701 48.76 69.1201 48.52C69.1601 48.32 69.18 48.05 69.18 47.68C69.18 47.18 69.11 46.79 68.96 46.49C68.78 46.17 68.4201 45.74 67.6601 45.64ZM67.45 48.3C67.4 48.33 67.31 48.37 67.13 48.39C67 48.4 66.6601 48.42 65.7601 48.42H63.39V47.04H65.7601C66.4301 47.04 66.8801 47.05 67.1101 47.07C67.3601 47.09 67.44 47.15 67.46 47.16C67.49 47.18 67.56 47.31 67.56 47.68C67.56 48.2 67.45 48.3 67.45 48.3Z" fill="#009325"/>
<path d="M71.62 45.57H70.02V52.09H71.62V45.57Z" fill="#009325"/>
<path d="M79.99 45.57H78.11L73.59 48.97V50.89H78.42V52.09H79.99V50.89H81.01V49.43H79.99V45.57ZM78.42 49.43H75.52L78.42 47.21V49.43Z" fill="#009325"/>
<path d="M92.03 47.32C91.98 46.96 91.9 46.69 91.78 46.48C91.54 46.07 91.16 45.8 90.65 45.69C90.17 45.6 89.38 45.55 88.22 45.55C87.19 45.55 86.47 45.61 86.03 45.73C85.4 45.9 85 46.34 84.86 47.01C84.77 47.46 84.72 48.06 84.72 48.85C84.72 49.54 84.75 50.07 84.8 50.46C84.91 51.25 85.35 51.76 86.07 51.94C86.56 52.06 87.29 52.12 88.3 52.12C89.03 52.12 89.62 52.1 90.06 52.06C90.53 52.01 90.88 51.93 91.11 51.82C91.56 51.6 91.85 51.19 91.95 50.59C92.03 50.12 92.07 49.51 92.07 48.71C92.1 48.1 92.08 47.65 92.03 47.32ZM90.35 50.45C90.35 50.45 90.26 50.52 89.88 50.57C89.55 50.61 89.02 50.63 88.3 50.63C86.75 50.63 86.48 50.46 86.47 50.45C86.45 50.43 86.31 50.19 86.31 48.92C86.31 48.51 86.33 48.12 86.36 47.75C86.4 47.34 86.46 47.2 86.49 47.17C86.52 47.15 86.62 47.11 86.86 47.08C87.14 47.04 87.6 47.02 88.25 47.02C88.96 47.02 89.49 47.04 89.83 47.07C90.25 47.1 90.35 47.18 90.35 47.18C90.35 47.18 90.41 47.27 90.46 47.63C90.5 47.94 90.52 48.39 90.52 48.97C90.52 50.21 90.36 50.44 90.35 50.45Z" fill="#009325"/>
<path d="M64.34 34.2C63.46 34.42 59.39 35.14 53.89 35.51C49.38 35.81 43.91 35.88 38.44 35.25C38.08 35.21 37.73 35.16 37.37 35.12C36.22 34.97 35.07 34.78 33.94 34.56C33.86 34.54 33.79 34.52 33.71 34.51C32.7 34.31 31.71 34.07 30.73 33.81C30.73 33.81 30.55 33.81 30.31 33.75C29.83 33.63 29.09 33.3 28.95 32.35C28.88 31.9 28.95 31.3 29.25 30.52C29.28 30.44 29.31 30.36 29.34 30.27C29.4 30.28 29.46 30.28 29.52 30.28C29.71 30.28 29.88 30.24 30.04 30.17C30.53 29.96 30.88 29.45 30.88 28.86V28.84C30.87 28.39 30.77 27.73 30.44 27.48C30.69 26.87 30.87 26.44 31.2 25.69C33.5 20.47 37.75 12.15 45.23 2.54C47.7 0.0700045 47.91 -0.689995 50.48 2.09C51.78 3.5 54.73 7.20001 57.98 12.38C58.03 12.46 58.08 12.53 58.12 12.61C58.13 12.63 58.15 12.65 58.16 12.67C58.2 12.73 58.24 12.8 58.28 12.86C60.2 15.97 62.22 19.58 64.05 23.55C64.34 24.17 64.62 24.8 64.9 25.44C65.1 25.91 65.3 26.38 65.5 26.86C65.78 27.55 66.06 28.24 66.32 28.94C66.58 29.61 66.83 30.29 67.06 30.97C67.73 33.77 66.28 33.72 64.34 34.2Z" fill="#009325"/>
<path d="M34.3501 22.55C34.3401 22.54 34.3301 22.54 34.3101 22.53C34.3301 22.54 34.3401 22.55 34.3501 22.55Z" fill="black"/>
<path d="M55.49 3.57999C55.3 3.55999 55.11 3.54999 54.91 3.52999C55.08 3.33999 55.19 3.08999 55.19 2.81999C55.19 2.71999 55.18 2.62999 55.15 2.53999L55.49 3.57999Z" fill="black"/>
<path d="M56.8 7.55999C56.39 7.73999 56.1 8.15999 56.1 8.64999V8.66999C55.52 8.53999 54.92 8.41999 54.32 8.29999C53.63 8.16999 52.94 8.05999 52.23 7.94999C39.71 6.10999 28.91 8.96999 28.12 14.35C27.75 16.86 29.63 19.48 33.02 21.74L32.97 21.85C28.93 19.31 26.66 16.31 27.08 13.44C27.94 7.56999 39.72 4.44999 53.38 6.45999C53.93 6.53999 54.48 6.62999 55.03 6.72999C55.56 6.81999 56.09 6.91999 56.6 7.02999L56.8 7.55999Z" fill="#003AA9"/>
<path d="M55.1201 2.46C54.9501 2.01 54.4701 1.69 53.9201 1.69C53.2201 1.69 52.6501 2.2 52.6501 2.83C52.6501 3.04 52.7101 3.24 52.8301 3.41C52.1101 3.37 51.3901 3.35 50.6801 3.35C37.2501 3.19 26.5801 7.39 26.1701 13.35C25.9601 16.45 28.5601 19.46 32.9901 21.86L32.9001 22C27.7701 19.47 24.6801 16.15 24.8501 12.64C25.1801 6.13 36.6701 1.34 51.0301 1.48C51.8901 1.49 52.7501 1.51 53.6301 1.56C54.0401 1.58 54.4401 1.61 54.8501 1.63L55.1201 2.46Z" fill="#003AA9"/>
<path d="M53.94 0C52.69 0 51.6 0.6 51.04 1.48C50.78 1.89 50.63 2.36 50.63 2.86C50.63 3.02 50.65 3.19 50.68 3.34C50.95 4.69 52.31 5.71 53.95 5.71C55.78 5.71 57.26 4.43 57.26 2.85C57.26 1.27 55.77 0 53.94 0ZM53.92 3.97C53.45 3.97 53.05 3.75 52.82 3.41C52.71 3.24 52.64 3.04 52.64 2.83C52.64 2.2 53.21 1.69 53.91 1.69C54.47 1.69 54.94 2.01 55.11 2.46C55.12 2.48 55.13 2.51 55.13 2.53C55.16 2.62 55.17 2.72 55.17 2.81C55.17 3.08 55.07 3.32 54.89 3.52C54.68 3.8 54.32 3.97 53.92 3.97Z" fill="#003AA9"/>
<path d="M57.25 5.72C56.37 5.72 55.5801 6.11 55.0401 6.72C54.6601 7.15 54.4 7.7 54.32 8.3C54.3 8.42 54.3 8.55 54.3 8.68C54.3 10.32 55.62 11.64 57.25 11.64C58.88 11.64 60.2001 10.31 60.2001 8.68C60.2001 7.04 58.88 5.72 57.25 5.72ZM57.2401 9.83C56.6201 9.83 56.1201 9.31 56.1101 8.67V8.65C56.1101 8.16 56.4001 7.74 56.8101 7.56C56.9401 7.5 57.0901 7.47 57.2401 7.47C57.8601 7.47 58.37 8 58.37 8.65C58.37 9.3 57.8601 9.83 57.2401 9.83Z" fill="#003AA9"/>
<path d="M57.6601 27.04C57.5201 27.89 57.3101 28.7 57.0401 29.47C56.6801 30.48 56.2201 31.41 55.6801 32.26C54.8401 33.59 53.8201 34.72 52.7501 35.61C51.6101 35.87 50.4401 36.1 49.2401 36.31C48.7901 35.42 48.6801 35.53 48.6801 35.54C48.6801 35.52 48.8301 34.85 49.0201 33.74C49.1601 32.95 49.3201 31.94 49.4801 30.78C49.5701 30.08 49.6601 29.33 49.7501 28.54C50.2701 23.41 50.3601 16.78 47.9901 13.38C48.5601 15.5 49.8601 19.26 47.6801 23.79C46.9701 25.27 46.5501 27.04 46.3101 28.78C46.2101 29.54 46.1401 30.29 46.1001 31.02C46.0301 32.16 46.0301 33.24 46.0601 34.16C46.1001 35.42 46.1801 36.37 46.2301 36.77C46.1801 36.75 44.4501 36.05 42.7601 34.49C41.8201 33.62 40.9001 32.49 40.2801 31.05C39.9701 30.35 39.7401 29.57 39.6201 28.72C39.4901 27.84 39.4801 26.89 39.6101 25.85C40.6401 17.97 46.6101 14.58 44.6601 9.53001C44.6601 9.53001 52.8001 8.81001 56.6301 18.61C57.8401 21.7 58.0601 24.54 57.6601 27.04Z" fill="white"/>
<path d="M65.76 22.98C65.64 23.81 65.34 24.59 64.87 25.33C61.36 30.84 48.62 33.52 34.11 31.38C33.44 31.28 32.78 31.18 32.13 31.06C31.49 30.95 30.86 30.83 30.24 30.7L30.02 30.04C30.51 29.83 30.86 29.32 30.86 28.73V28.71C31.56 28.87 32.27 29.01 33 29.15C33.82 29.3 34.66 29.44 35.51 29.57C49.32 31.6 61.38 28.88 64.03 23.43C64.27 22.93 64.44 22.41 64.52 21.87C64.98 18.76 62.57 15.52 58.27 12.74L58.26 12.73L58.14 12.54H58.15C58.28 12.61 58.42 12.68 58.55 12.75C63.48 15.85 66.27 19.49 65.76 22.98Z" fill="#003AA9"/>
<path d="M68.46 23.92C68.19 29.28 61.64 33.66 52 35.85C51.06 36.06 50.09 36.26 49.1 36.43C48.28 36.57 47.45 36.69 46.6 36.8C43.77 37.16 40.77 37.36 37.65 37.36C37.42 37.36 37.19 37.36 36.96 37.36C35.93 37.35 34.88 37.32 33.83 37.27C33.34 37.25 32.85 37.22 32.36 37.18L32.03 36.18C32.24 36.72 32.81 37.11 33.48 37.11C34.32 37.11 35.01 36.5 35.01 35.74C35.01 35.49 34.93 35.25 34.8 35.05C35.67 35.09 36.53 35.12 37.39 35.13C39.57 35.16 41.69 35.09 43.73 34.93C44.65 34.86 45.56 34.77 46.45 34.66C47.29 34.56 48.11 34.44 48.91 34.31C50.86 33.99 52.71 33.58 54.41 33.1C61.76 31 66.58 27.44 66.88 23.1C67.14 19.34 63.94 15.69 58.53 12.78C58.39 12.69 58.24 12.6 58.09 12.51L57.95 12.28C64.61 15.35 68.68 19.52 68.46 23.92Z" fill="#003AA9"/>
<path d="M33.4601 39.14C34.9701 39.14 36.2801 38.42 36.9601 37.36C37.2701 36.87 37.4501 36.3 37.4501 35.7C37.4501 35.5 37.4301 35.31 37.3901 35.12C37.0701 33.5 35.4301 32.26 33.4601 32.26C31.2601 32.26 29.4701 33.8 29.4701 35.7C29.4701 37.6 31.2601 39.14 33.4601 39.14ZM33.4901 34.37C34.0501 34.37 34.5401 34.64 34.8101 35.04C34.9401 35.24 35.0201 35.48 35.0201 35.73C35.0201 36.49 34.3401 37.1 33.4901 37.1C32.8201 37.1 32.2501 36.71 32.0401 36.17C32.0301 36.14 32.0201 36.11 32.0101 36.08C31.9801 35.97 31.9601 35.86 31.9601 35.74C31.9601 35.42 32.0801 35.12 32.2901 34.89C32.5701 34.57 33.0001 34.37 33.4901 34.37Z" fill="#003AA9"/>
<path d="M31.17 25.57C30.66 25.29 30.08 25.13 29.47 25.13C27.51 25.13 25.92 26.73 25.92 28.69C25.92 30.47 27.22 31.95 28.92 32.21C29.1 32.24 29.28 32.25 29.47 32.25C30.53 32.25 31.47 31.79 32.12 31.05C32.58 30.53 32.89 29.87 32.98 29.14C33 28.99 33.01 28.84 33.01 28.68C33.02 27.35 32.27 26.17 31.17 25.57ZM30.85 28.73C30.85 29.32 30.5 29.82 30.01 30.04C29.85 30.11 29.67 30.15 29.49 30.15C29.43 30.15 29.37 30.14 29.31 30.14C28.64 30.05 28.13 29.46 28.13 28.74C28.13 27.96 28.74 27.32 29.49 27.32C29.8 27.32 30.08 27.43 30.31 27.61C30.64 27.86 30.85 28.27 30.85 28.72V28.73Z" fill="#003AA9"/>
<path d="M33.1001 21.92C33.0601 21.9 33.0201 21.88 32.9801 21.85L32.9901 21.84C33.0201 21.87 33.0601 21.89 33.1001 21.92Z" fill="#003AA9"/>
</svg>
