<svg width="45" height="40" viewBox="0 0 45 40" fill="none" xmlns="http://www.w3.org/2000/svg">
<path d="M40.34 34.2C39.46 34.42 35.39 35.14 29.89 35.51C25.38 35.81 19.91 35.88 14.44 35.25C14.08 35.21 13.73 35.16 13.37 35.12C12.22 34.97 11.07 34.78 9.94004 34.56C9.86004 34.54 9.79004 34.52 9.71004 34.51C8.70004 34.31 7.71004 34.07 6.73004 33.81C6.73004 33.81 6.55004 33.81 6.31004 33.75C5.83004 33.63 5.09004 33.3 4.95004 32.35C4.88004 31.9 4.95004 31.3 5.25004 30.52C5.28004 30.44 5.31004 30.36 5.34004 30.27C5.40004 30.28 5.46004 30.28 5.52004 30.28C5.71004 30.28 5.88004 30.24 6.04004 30.17C6.53004 29.96 6.88004 29.45 6.88004 28.86V28.84C6.87004 28.39 6.77004 27.73 6.44004 27.48C6.69004 26.87 6.87004 26.44 7.20004 25.69C9.50004 20.47 13.75 12.15 21.23 2.54C23.7 0.0700045 23.91 -0.689995 26.48 2.09C27.78 3.5 30.73 7.20001 33.98 12.38C34.03 12.46 34.08 12.53 34.12 12.61C34.13 12.63 34.15 12.65 34.16 12.67C34.2 12.73 34.24 12.8 34.28 12.86C36.2 15.97 38.22 19.58 40.05 23.55C40.34 24.17 40.62 24.8 40.9 25.44C41.1 25.91 41.3 26.38 41.5 26.86C41.78 27.55 42.06 28.24 42.32 28.94C42.58 29.61 42.83 30.29 43.06 30.97C43.73 33.77 42.28 33.72 40.34 34.2Z" fill="#009325"/>
<path d="M10.3501 22.55C10.3401 22.54 10.3301 22.54 10.3101 22.53C10.3301 22.54 10.3401 22.55 10.3501 22.55Z" fill="black"/>
<path d="M31.49 3.57999C31.3 3.55999 31.11 3.54999 30.91 3.52999C31.08 3.33999 31.19 3.08999 31.19 2.81999C31.19 2.71999 31.18 2.62999 31.15 2.53999L31.49 3.57999Z" fill="black"/>
<path d="M32.8 7.55999C32.39 7.73999 32.1 8.15999 32.1 8.64999V8.66999C31.52 8.53999 30.92 8.41999 30.32 8.29999C29.63 8.16999 28.94 8.05999 28.23 7.94999C15.71 6.10999 4.91003 8.96999 4.12003 14.35C3.75003 16.86 5.63002 19.48 9.02002 21.74L8.97003 21.85C4.93003 19.31 2.66002 16.31 3.08002 13.44C3.94002 7.56999 15.72 4.44999 29.38 6.45999C29.93 6.53999 30.48 6.62999 31.03 6.72999C31.56 6.81999 32.09 6.91999 32.6 7.02999L32.8 7.55999Z" fill="#003AA9"/>
<path d="M31.1201 2.46C30.9501 2.01 30.4701 1.69 29.9201 1.69C29.2201 1.69 28.6501 2.2 28.6501 2.83C28.6501 3.04 28.7101 3.24 28.8301 3.41C28.1101 3.37 27.3901 3.35 26.6801 3.35C13.2501 3.19 2.58005 7.39 2.17005 13.35C1.96005 16.45 4.56006 19.46 8.99006 21.86L8.90006 22C3.77006 19.47 0.680054 16.15 0.850054 12.64C1.18005 6.13 12.6701 1.34 27.0301 1.48C27.8901 1.49 28.7501 1.51 29.6301 1.56C30.0401 1.58 30.4401 1.61 30.8501 1.63L31.1201 2.46Z" fill="#003AA9"/>
<path d="M29.94 0C28.69 0 27.6 0.6 27.04 1.48C26.78 1.89 26.63 2.36 26.63 2.86C26.63 3.02 26.65 3.19 26.68 3.34C26.95 4.69 28.31 5.71 29.95 5.71C31.78 5.71 33.26 4.43 33.26 2.85C33.26 1.27 31.77 0 29.94 0ZM29.92 3.97C29.45 3.97 29.05 3.75 28.82 3.41C28.71 3.24 28.64 3.04 28.64 2.83C28.64 2.2 29.21 1.69 29.91 1.69C30.47 1.69 30.94 2.01 31.11 2.46C31.12 2.48 31.13 2.51 31.13 2.53C31.16 2.62 31.17 2.72 31.17 2.81C31.17 3.08 31.07 3.32 30.89 3.52C30.68 3.8 30.32 3.97 29.92 3.97Z" fill="#003AA9"/>
<path d="M33.25 5.72C32.37 5.72 31.5801 6.11 31.0401 6.72C30.6601 7.15 30.4 7.7 30.32 8.3C30.3 8.42 30.3 8.55 30.3 8.68C30.3 10.32 31.62 11.64 33.25 11.64C34.88 11.64 36.2001 10.31 36.2001 8.68C36.2001 7.04 34.88 5.72 33.25 5.72ZM33.2401 9.83C32.6201 9.83 32.1201 9.31 32.1101 8.67V8.65C32.1101 8.16 32.4001 7.74 32.8101 7.56C32.9401 7.5 33.0901 7.47 33.2401 7.47C33.8601 7.47 34.37 8 34.37 8.65C34.37 9.3 33.8601 9.83 33.2401 9.83Z" fill="#003AA9"/>
<path d="M33.6601 27.04C33.5201 27.89 33.3101 28.7 33.0401 29.47C32.6801 30.48 32.2201 31.41 31.6801 32.26C30.8401 33.59 29.8201 34.72 28.7501 35.61C27.6101 35.87 26.4401 36.1 25.2401 36.31C24.7901 35.42 24.6801 35.53 24.6801 35.54C24.6801 35.52 24.8301 34.85 25.0201 33.74C25.1601 32.95 25.3201 31.94 25.4801 30.78C25.5701 30.08 25.6601 29.33 25.7501 28.54C26.2701 23.41 26.3601 16.78 23.9901 13.38C24.5601 15.5 25.8601 19.26 23.6801 23.79C22.9701 25.27 22.5501 27.04 22.3101 28.78C22.2101 29.54 22.1401 30.29 22.1001 31.02C22.0301 32.16 22.0301 33.24 22.0601 34.16C22.1001 35.42 22.1801 36.37 22.2301 36.77C22.1801 36.75 20.4501 36.05 18.7601 34.49C17.8201 33.62 16.9001 32.49 16.2801 31.05C15.9701 30.35 15.7401 29.57 15.6201 28.72C15.4901 27.84 15.4801 26.89 15.6101 25.85C16.6401 17.97 22.6101 14.58 20.6601 9.53001C20.6601 9.53001 28.8001 8.81001 32.6301 18.61C33.8401 21.7 34.0601 24.54 33.6601 27.04Z" fill="white"/>
<path d="M41.76 22.98C41.64 23.81 41.34 24.59 40.87 25.33C37.36 30.84 24.62 33.52 10.11 31.38C9.44002 31.28 8.78002 31.18 8.13002 31.06C7.49002 30.95 6.86002 30.83 6.24002 30.7L6.02002 30.04C6.51002 29.83 6.86002 29.32 6.86002 28.73V28.71C7.56002 28.87 8.27002 29.01 9.00002 29.15C9.82002 29.3 10.66 29.44 11.51 29.57C25.32 31.6 37.38 28.88 40.03 23.43C40.27 22.93 40.44 22.41 40.52 21.87C40.98 18.76 38.57 15.52 34.27 12.74L34.26 12.73L34.14 12.54H34.15C34.28 12.61 34.42 12.68 34.55 12.75C39.48 15.85 42.27 19.49 41.76 22.98Z" fill="#003AA9"/>
<path d="M44.46 23.92C44.19 29.28 37.64 33.66 28 35.85C27.06 36.06 26.09 36.26 25.1 36.43C24.28 36.57 23.45 36.69 22.6 36.8C19.77 37.16 16.77 37.36 13.65 37.36C13.42 37.36 13.19 37.36 12.96 37.36C11.93 37.35 10.88 37.32 9.83003 37.27C9.34003 37.25 8.85003 37.22 8.36003 37.18L8.03003 36.18C8.24003 36.72 8.81003 37.11 9.48003 37.11C10.32 37.11 11.01 36.5 11.01 35.74C11.01 35.49 10.93 35.25 10.8 35.05C11.67 35.09 12.53 35.12 13.39 35.13C15.57 35.16 17.69 35.09 19.73 34.93C20.65 34.86 21.56 34.77 22.45 34.66C23.29 34.56 24.11 34.44 24.91 34.31C26.86 33.99 28.71 33.58 30.41 33.1C37.76 31 42.58 27.44 42.88 23.1C43.14 19.34 39.94 15.69 34.53 12.78C34.39 12.69 34.24 12.6 34.09 12.51L33.95 12.28C40.61 15.35 44.68 19.52 44.46 23.92Z" fill="#003AA9"/>
<path d="M9.46009 39.14C10.9701 39.14 12.2801 38.42 12.9601 37.36C13.2701 36.87 13.4501 36.3 13.4501 35.7C13.4501 35.5 13.4301 35.31 13.3901 35.12C13.0701 33.5 11.4301 32.26 9.46009 32.26C7.26009 32.26 5.47009 33.8 5.47009 35.7C5.47009 37.6 7.26009 39.14 9.46009 39.14ZM9.4901 34.37C10.0501 34.37 10.5401 34.64 10.8101 35.04C10.9401 35.24 11.0201 35.48 11.0201 35.73C11.0201 36.49 10.3401 37.1 9.4901 37.1C8.8201 37.1 8.25009 36.71 8.04009 36.17C8.03009 36.14 8.02009 36.11 8.01009 36.08C7.98009 35.97 7.96009 35.86 7.96009 35.74C7.96009 35.42 8.08009 35.12 8.29009 34.89C8.57009 34.57 9.0001 34.37 9.4901 34.37Z" fill="#003AA9"/>
<path d="M7.17004 25.57C6.66004 25.29 6.08004 25.13 5.47004 25.13C3.51004 25.13 1.92004 26.73 1.92004 28.69C1.92004 30.47 3.22004 31.95 4.92004 32.21C5.10004 32.24 5.28004 32.25 5.47004 32.25C6.53004 32.25 7.47004 31.79 8.12004 31.05C8.58004 30.53 8.89004 29.87 8.98004 29.14C9.00004 28.99 9.01004 28.84 9.01004 28.68C9.02004 27.35 8.27004 26.17 7.17004 25.57ZM6.85004 28.73C6.85004 29.32 6.50004 29.82 6.01004 30.04C5.85004 30.11 5.67004 30.15 5.49004 30.15C5.43004 30.15 5.37004 30.14 5.31004 30.14C4.64004 30.05 4.13004 29.46 4.13004 28.74C4.13004 27.96 4.74004 27.32 5.49004 27.32C5.80004 27.32 6.08004 27.43 6.31004 27.61C6.64004 27.86 6.85004 28.27 6.85004 28.72V28.73Z" fill="#003AA9"/>
<path d="M9.1001 21.92C9.0601 21.9 9.0201 21.88 8.9801 21.85L8.9901 21.84C9.0201 21.87 9.0601 21.89 9.1001 21.92Z" fill="#003AA9"/>
</svg>
