<svg width="39" height="39" viewBox="0 0 39 39" fill="none" xmlns="http://www.w3.org/2000/svg">
<circle cx="19.5" cy="19.5" r="19.5" fill="#009325"/>
<path d="M19.075 19.9846L18.5058 20.8068L19.075 19.9846ZM20.925 19.9846L21.4942 20.8068L20.925 19.9846ZM11.0625 12.6875H28.9375V10.6875H11.0625V12.6875ZM29.5625 13.3125V24.6875H31.5625V13.3125H29.5625ZM28.9375 25.3125H11.0625V27.3125H28.9375V25.3125ZM10.4375 24.6875V13.3125H8.4375V24.6875H10.4375ZM11.0625 25.3125C10.7173 25.3125 10.4375 25.0327 10.4375 24.6875H8.4375C8.4375 26.1372 9.61275 27.3125 11.0625 27.3125V25.3125ZM29.5625 24.6875C29.5625 25.0327 29.2827 25.3125 28.9375 25.3125V27.3125C30.3872 27.3125 31.5625 26.1372 31.5625 24.6875H29.5625ZM28.9375 12.6875C29.2827 12.6875 29.5625 12.9673 29.5625 13.3125H31.5625C31.5625 11.8628 30.3872 10.6875 28.9375 10.6875V12.6875ZM11.0625 10.6875C9.61275 10.6875 8.4375 11.8628 8.4375 13.3125H10.4375C10.4375 12.9673 10.7173 12.6875 11.0625 12.6875V10.6875ZM8.86829 14.1347L18.5058 20.8068L19.6442 19.1624L10.0067 12.4903L8.86829 14.1347ZM21.4942 20.8068L31.1317 14.1347L29.9933 12.4903L20.3558 19.1624L21.4942 20.8068ZM18.5058 20.8068C19.4047 21.4292 20.5953 21.4292 21.4942 20.8068L20.3558 19.1624C20.1417 19.3106 19.8583 19.3106 19.6442 19.1624L18.5058 20.8068Z" fill="white"/>
</svg>
