<svg width="39" height="39" viewBox="0 0 39 39" fill="none" xmlns="http://www.w3.org/2000/svg">
<circle cx="19.5" cy="19.5" r="19.5" fill="#009325"/>
<path d="M16.0258 16.9506C17.018 20.8806 18.3354 22.5501 21.9559 24.5726L20.0349 26.6061C15.897 24.1224 14.1234 20.5087 13.4144 17.763L16.0258 16.9506Z" fill="white"/>
<path d="M17.8641 11.8787C18.6388 11.9611 19.1533 12.6409 19.0163 13.3315C18.8007 14.4182 18.7935 15.2185 18.9131 16.2248C18.9788 16.7775 18.6168 17.2917 18.1039 17.592C17.4125 17.9969 16.8551 18.5483 16.4072 19.0266C15.7865 19.6895 13.9568 19.4354 13.6458 18.6045C13.0068 16.8969 12.8013 13.858 14.263 11.9812C14.4926 11.6863 14.8981 11.5632 15.2976 11.6057L17.8641 11.8787Z" fill="white"/>
<path d="M28.1735 25.1296C28.3536 24.4476 27.8197 23.78 27.0507 23.6583C25.8407 23.4668 25.0015 23.1978 23.9907 22.7511C23.4355 22.5057 22.7736 22.6345 22.2834 22.964C21.6227 23.4082 20.8546 23.689 20.2008 23.9025C19.2945 24.1984 18.9314 25.8293 19.6932 26.3772C21.2586 27.5031 24.3648 28.7207 26.829 28.1324C27.2161 28.04 27.4841 27.7403 27.577 27.3886L28.1735 25.1296Z" fill="white"/>
</svg>
