<svg width="22" height="25" viewBox="0 0 22 25" fill="none" xmlns="http://www.w3.org/2000/svg">
<path d="M7.05583 8.36651C8.05233 12.5021 9.37535 14.259 13.0113 16.3873L11.0821 18.5271C6.92652 15.9135 5.14534 12.1108 4.43324 9.22145L7.05583 8.36651Z" fill="#39822B"/>
<path d="M8.90198 3.02925C9.68006 3.11598 10.1967 3.83138 10.0591 4.55805C9.84259 5.70159 9.83539 6.54384 9.95553 7.60273C10.0215 8.18438 9.6579 8.72543 9.14281 9.0415C8.44854 9.46751 7.88871 10.0478 7.43893 10.5511C6.8155 11.2487 4.97799 10.9813 4.66571 10.1069C4.02394 8.31001 3.81756 5.11211 5.28555 3.13707C5.51614 2.82684 5.92328 2.69725 6.32451 2.74197L8.90198 3.02925Z" fill="#39822B"/>
<path d="M19.2556 16.9734C19.4365 16.2557 18.9003 15.5532 18.128 15.4251C16.9128 15.2236 16.0701 14.9406 15.055 14.4705C14.4974 14.2123 13.8326 14.3478 13.3403 14.6946C12.6767 15.1619 11.9054 15.4574 11.2488 15.6821C10.3387 15.9935 9.974 17.7098 10.739 18.2863C12.3111 19.4711 15.4306 20.7524 17.9054 20.1333C18.2941 20.0361 18.5633 19.7207 18.6566 19.3506L19.2556 16.9734Z" fill="#39822B"/>
</svg>
