<svg width="39" height="39" viewBox="0 0 39 39" fill="none" xmlns="http://www.w3.org/2000/svg">
<circle cx="19.5" cy="19.5" r="19.5" fill="#009325"/>
<path d="M24.9999 21C24.4091 21.0039 23.8265 21.1386 23.2939 21.3945C22.7614 21.6504 22.2921 22.0211 21.9199 22.48L16.8199 20.13C17.0597 19.3957 17.0597 18.6042 16.8199 17.87L21.9199 15.52C22.5215 16.246 23.3602 16.7361 24.2881 16.9038C25.2159 17.0716 26.1731 16.9062 26.9909 16.4369C27.8086 15.9676 28.4343 15.2245 28.7575 14.3387C29.0806 13.453 29.0805 12.4816 28.7572 11.5959C28.4339 10.7102 27.8081 9.96724 26.9902 9.49806C26.1724 9.02889 25.2151 8.86369 24.2873 9.03162C23.3596 9.19955 22.5209 9.68981 21.9194 10.4159C21.318 11.142 20.9923 12.0572 20.9999 13C21.0029 13.2382 21.0263 13.4758 21.0699 13.71L15.7899 16.14C15.227 15.5896 14.5142 15.2175 13.7407 15.0704C12.9673 14.9233 12.1676 15.0078 11.442 15.3131C10.7163 15.6185 10.0969 16.1312 9.66131 16.7871C9.22574 17.4429 8.99341 18.2127 8.99341 19C8.99341 19.7873 9.22574 20.5571 9.66131 21.2129C10.0969 21.8688 10.7163 22.3815 11.442 22.6869C12.1676 22.9922 12.9673 23.0767 13.7407 22.9296C14.5142 22.7825 15.227 22.4104 15.7899 21.86L21.0699 24.29C21.0263 24.5242 21.0029 24.7618 20.9999 25C20.9999 25.7911 21.2345 26.5645 21.674 27.2223C22.1136 27.8801 22.7383 28.3928 23.4692 28.6955C24.2001 28.9983 25.0043 29.0775 25.7803 28.9231C26.5562 28.7688 27.2689 28.3878 27.8283 27.8284C28.3877 27.269 28.7687 26.5563 28.923 25.7804C29.0774 25.0044 28.9982 24.2002 28.6954 23.4693C28.3927 22.7384 27.88 22.1136 27.2222 21.6741C26.5644 21.2346 25.791 21 24.9999 21ZM24.9999 11C25.3955 11 25.7822 11.1173 26.111 11.3371C26.4399 11.5568 26.6963 11.8692 26.8477 12.2346C26.999 12.6001 27.0386 13.0022 26.9615 13.3902C26.8843 13.7781 26.6938 14.1345 26.4141 14.4142C26.1344 14.6939 25.778 14.8844 25.3901 14.9616C25.0021 15.0387 24.6 14.9991 24.2345 14.8478C23.8691 14.6964 23.5567 14.44 23.337 14.1111C23.1172 13.7822 22.9999 13.3956 22.9999 13C22.9999 12.4696 23.2106 11.9609 23.5857 11.5858C23.9608 11.2107 24.4695 11 24.9999 11ZM12.9999 21C12.6043 21 12.2177 20.8827 11.8888 20.6629C11.5599 20.4432 11.3035 20.1308 11.1521 19.7654C11.0008 19.3999 10.9612 18.9978 11.0383 18.6098C11.1155 18.2218 11.306 17.8655 11.5857 17.5858C11.8654 17.3061 12.2218 17.1156 12.6097 17.0384C12.9977 16.9613 13.3998 17.0009 13.7653 17.1522C14.1307 17.3036 14.4431 17.56 14.6628 17.8889C14.8826 18.2178 14.9999 18.6044 14.9999 19C14.9999 19.5304 14.7892 20.0391 14.4141 20.4142C14.039 20.7893 13.5303 21 12.9999 21ZM24.9999 27C24.6043 27 24.2177 26.8827 23.8888 26.6629C23.5599 26.4432 23.3035 26.1308 23.1521 25.7654C23.0008 25.3999 22.9612 24.9978 23.0383 24.6098C23.1155 24.2218 23.306 23.8655 23.5857 23.5858C23.8654 23.3061 24.2218 23.1156 24.6097 23.0384C24.9977 22.9613 25.3998 23.0009 25.7653 23.1522C26.1307 23.3036 26.4431 23.56 26.6628 23.8889C26.8826 24.2177 26.9999 24.6044 26.9999 25C26.9999 25.5304 26.7892 26.0391 26.4141 26.4142C26.039 26.7893 25.5303 27 24.9999 27Z" fill="white"/>
</svg>
