<svg width="9" height="10" viewBox="0 0 9 10" fill="none" xmlns="http://www.w3.org/2000/svg">
<path d="M4.55996 7.97C4.61996 7.85 4.67995 7.74001 4.73995 7.62001C4.77995 7.54001 4.83995 7.46 4.87995 7.38C4.94995 7.26 5.05995 7.21 5.17995 7.22C5.44995 7.24 5.71996 7.26 5.97996 7.31C6.37996 7.38 6.76995 7.48001 7.15995 7.57001C7.55995 7.67001 7.78996 8.10001 7.63996 8.49001C7.38996 9.15 6.90995 9.54001 6.20995 9.66001C5.64995 9.75001 5.11995 9.63001 4.59995 9.44001C3.77995 9.14001 3.05995 8.66 2.37995 8.13C1.75995 7.65 1.21995 7.09001 0.789954 6.44001C0.449954 5.92001 0.179963 5.36001 0.0799629 4.74001C-0.0200371 4.15001 0.0199574 3.57001 0.339957 3.04001C0.539957 2.72001 0.819959 2.49001 1.16996 2.35001C1.53996 2.20001 2.00996 2.40001 2.11996 2.78001C2.28996 3.36001 2.46995 3.95001 2.53995 4.55001C2.59995 5.02001 2.54996 5.01001 2.21996 5.23001C2.10996 5.31001 1.97996 5.37001 1.85996 5.44001C2.49996 6.57001 3.38996 7.42 4.55996 7.97Z" fill="white"/>
<path d="M8.95983 5.29C8.95983 5.41 8.85984 5.52 8.72984 5.54C8.59984 5.55 8.48984 5.46 8.46984 5.32C8.40984 4.88 8.28984 4.46 8.10984 4.06C7.44984 2.63 6.32983 1.79 4.78983 1.49C4.62983 1.46 4.45983 1.45 4.28983 1.43C4.13983 1.41 4.04984 1.31 4.05984 1.17C4.06984 1.04 4.17984 0.94 4.32984 0.95C5.24984 1.01 6.09983 1.29 6.84983 1.82C8.02983 2.64 8.70984 3.78 8.93984 5.19C8.95984 5.21 8.95983 5.25 8.95983 5.29Z" fill="white"/>
<path d="M4.40987 2.11C4.98987 2.17 5.53988 2.35 6.02988 2.68C6.90988 3.26 7.42988 4.07 7.63988 5.09C7.67988 5.27 7.58988 5.41 7.43988 5.42C7.29988 5.43 7.19988 5.35 7.16988 5.2C7.07988 4.68 6.87988 4.21 6.55988 3.8C6.00988 3.1 5.28987 2.7 4.39987 2.59C4.24987 2.57 4.14987 2.47 4.15987 2.33C4.14987 2.21 4.26987 2.11 4.40987 2.11Z" fill="white"/>
<path d="M4.42001 3.39C4.79001 3.44 5.14001 3.57 5.45001 3.8C5.91001 4.13 6.19001 4.58 6.33001 5.12C6.37001 5.27 6.29001 5.4 6.15001 5.43C6.02001 5.46 5.89 5.38 5.85 5.24C5.64 4.47 5.15001 4.01 4.37001 3.87C4.22001 3.84 4.14001 3.74 4.15001 3.6C4.17001 3.48 4.28001 3.39 4.42001 3.39Z" fill="white"/>
</svg>
