<svg width="39" height="39" viewBox="0 0 39 39" fill="none" xmlns="http://www.w3.org/2000/svg">
<circle cx="19.5" cy="19.5" r="19.5" fill="#009325"/>
<path d="M19.4909 7.87498C13.076 7.87498 7.875 13.076 7.875 19.4909C7.875 25.9058 13.076 31.1068 19.4909 31.1068C25.9059 31.1068 31.1068 25.9089 31.1068 19.4909C31.1068 13.0729 25.9059 7.87498 19.4909 7.87498ZM19.4909 29.1723C18.7462 29.1723 17.838 28.2793 17.1205 26.8413C16.6967 25.9967 16.3425 24.9704 16.0912 23.8594H22.8876C22.6363 24.9704 22.2821 25.9967 21.8613 26.8413C21.1438 28.2793 20.2326 29.1723 19.4909 29.1723ZM15.622 19.4909C15.622 18.6675 15.6674 17.8622 15.7582 17.0781H23.2176C23.3084 17.8622 23.3538 18.6705 23.3538 19.4909C23.3538 20.3204 23.3084 21.1317 23.2146 21.9219H15.7612C15.6704 21.1317 15.622 20.3204 15.622 19.4909ZM19.4909 9.81248C20.2356 9.81248 21.1438 10.7056 21.8613 12.1435C22.2852 12.9912 22.6394 14.0235 22.8937 15.1406H16.0882C16.3395 14.0235 16.6967 12.9912 17.1205 12.1435C17.838 10.7056 18.7462 9.81248 19.4909 9.81248ZM28.8636 21.9219H25.1672C25.252 21.1378 25.2943 20.3265 25.2943 19.4909C25.2943 18.6644 25.252 17.8561 25.1702 17.0781H28.8666C29.0664 17.8622 29.1693 18.6675 29.1693 19.4909C29.1693 20.3204 29.0664 21.1348 28.8636 21.9219ZM26.3327 12.6491C27.0684 13.3848 27.6738 14.2233 28.137 15.1406H24.8735C24.5103 13.3424 23.929 11.7651 23.1934 10.5451L23.2569 10.5723C24.4104 11.0598 25.4457 11.7591 26.3327 12.6491ZM12.6461 12.6491C13.5361 11.7591 14.5715 11.0628 15.7249 10.5723L15.7885 10.5451C15.0528 11.7651 14.4716 13.3393 14.1083 15.1406H10.8418C11.305 14.2203 11.9074 13.3848 12.6461 12.6491ZM10.1122 17.0781H13.8116C13.7299 17.8561 13.6875 18.6644 13.6875 19.4909C13.6875 20.3234 13.7329 21.1378 13.8146 21.9219H10.1152C9.9124 21.1348 9.80947 20.3204 9.80947 19.4909C9.80947 18.6675 9.9124 17.8622 10.1122 17.0781ZM12.6461 26.3357C11.9135 25.6031 11.311 24.7706 10.8479 23.8594H14.1083C14.4716 25.6516 15.0528 27.2227 15.7854 28.4397L15.7219 28.4125C14.5685 27.9251 13.5331 27.2258 12.6461 26.3357ZM26.3327 26.3357C25.4427 27.2258 24.4073 27.9221 23.2539 28.4125L23.1903 28.4397C23.923 27.2227 24.5042 25.6546 24.8675 23.8594H28.1279C27.6678 24.7736 27.0653 25.6061 26.3327 26.3357Z" fill="white"/>
</svg>
